<?xml version="1.0" encoding="utf-8"?>
<!-- Generator: Adobe Illustrator 19.2.1, SVG Export Plug-In . SVG Version: 6.00 Build 0)  -->
<svg version="1.1" id="Слой_1" xmlns="http://www.w3.org/2000/svg" xmlns:xlink="http://www.w3.org/1999/xlink" x="0px" y="0px"
	 viewBox="0 0 58 31" style="enable-background:new 0 0 58 31;" xml:space="preserve">
<style type="text/css">
	.st0{fill:#231F20;}
	.st1{fill:#EE4237;}
	.st2{fill:#EC2227;}
</style>
<g>
	<path class="st0" d="M5.6,14.6l1.3,0.3v0.2H2.5v-0.2l1.3-0.3V0.4H1.5c0,0.6-0.1,1.2-0.4,1.7c-0.2,0.5-0.6,1-0.9,1.3H0
		c0-0.2,0-0.4,0-0.6c0-0.2,0-0.4,0-0.6c0-0.2,0-0.4,0-0.6c0-0.3,0-0.5,0-0.7c0-0.2,0-0.4,0-0.5C0,0.3,0,0.1,0,0h9.4
		c0,0.1,0,0.3-0.1,0.5c0,0.2,0,0.3,0,0.5c0,0.2,0,0.4,0,0.7c0,0.2,0,0.4,0,0.6c0,0.2,0,0.4,0,0.6c0,0.2,0,0.4,0.1,0.6H9.2
		C8.8,3.1,8.5,2.6,8.2,2.1C8,1.6,7.9,1,7.9,0.4H5.6V14.6z"/>
	<path class="st0" d="M13.2,15c0.3,0,0.6-0.1,0.9-0.2c0.3-0.2,0.5-0.4,0.8-0.8c0.2-0.4,0.4-0.9,0.5-1.5c0.1-0.6,0.2-1.4,0.2-2.3
		c0-0.9-0.1-1.7-0.2-2.3c-0.1-0.6-0.3-1.1-0.5-1.5c-0.2-0.4-0.4-0.6-0.7-0.8c-0.3-0.2-0.5-0.2-0.7-0.2c-0.4,0-0.7,0.1-0.9,0.3
		C12.2,5.8,12,6,11.8,6.3c-0.2,0.3-0.4,0.6-0.6,1v6.5c0.1,0.2,0.3,0.5,0.5,0.6c0.2,0.2,0.4,0.3,0.6,0.4C12.6,14.9,12.9,15,13.2,15
		 M9.5,5.7L8.2,5.4V5.2h3v1.3c0.1-0.3,0.3-0.6,0.6-0.8c0.2-0.2,0.5-0.4,0.8-0.6c0.3-0.2,0.7-0.3,1.1-0.3c0.5,0,0.9,0.1,1.4,0.4
		c0.5,0.2,0.9,0.6,1.2,1c0.3,0.5,0.6,1,0.9,1.7c0.2,0.7,0.3,1.4,0.3,2.2c0,0.8-0.1,1.6-0.3,2.2c-0.2,0.7-0.5,1.2-0.9,1.7
		c-0.4,0.5-0.8,0.8-1.3,1c-0.5,0.2-1,0.4-1.5,0.4c-0.4,0-0.8-0.1-1-0.2c-0.3-0.1-0.5-0.2-0.7-0.4c-0.2-0.2-0.4-0.3-0.5-0.5v5.4
		l1.3,0.3v0.2H8.2V20l1.3-0.3V5.7z"/>
	<path class="st0" d="M23,5.2c-0.2,0-0.5,0.1-0.7,0.2c-0.3,0.2-0.5,0.4-0.7,0.8c-0.2,0.4-0.4,0.9-0.5,1.5c-0.1,0.6-0.2,1.4-0.2,2.4
		c0,0.9,0.1,1.7,0.2,2.4c0.1,0.6,0.3,1.1,0.5,1.5c0.2,0.4,0.4,0.7,0.7,0.8c0.3,0.2,0.5,0.2,0.7,0.2c0.2,0,0.5-0.1,0.7-0.2
		c0.3-0.2,0.5-0.4,0.7-0.8c0.2-0.4,0.4-0.9,0.5-1.5c0.1-0.6,0.2-1.4,0.2-2.4c0-1-0.1-1.7-0.2-2.4c-0.1-0.6-0.3-1.1-0.5-1.5
		c-0.2-0.4-0.4-0.7-0.7-0.8C23.5,5.3,23.3,5.2,23,5.2 M23,4.8c0.5,0,1,0.1,1.5,0.4c0.5,0.2,0.9,0.6,1.3,1c0.4,0.5,0.7,1,0.9,1.7
		c0.2,0.7,0.3,1.4,0.3,2.2c0,0.8-0.1,1.6-0.3,2.2c-0.2,0.7-0.5,1.2-0.9,1.7c-0.4,0.5-0.8,0.8-1.3,1c-0.5,0.2-1,0.4-1.5,0.4
		c-0.5,0-1.1-0.1-1.6-0.4c-0.5-0.2-0.9-0.6-1.3-1c-0.4-0.5-0.7-1-0.9-1.7c-0.2-0.7-0.3-1.4-0.3-2.2c0-0.8,0.1-1.6,0.3-2.2
		c0.2-0.7,0.5-1.2,0.9-1.7c0.4-0.5,0.8-0.8,1.3-1C22,5,22.5,4.8,23,4.8"/>
	<path class="st0" d="M32.6,3.6c0.3,0,0.5-0.1,0.7-0.3c0.2-0.2,0.3-0.5,0.3-0.9c0-0.1,0-0.2,0-0.3c0-0.1,0-0.2,0-0.2
		c0-0.1,0-0.1,0-0.2h1.4c0,0,0,0.1,0,0.2c0,0,0,0.1,0,0.2c0,0.1,0,0.1,0,0.2c0,0.5-0.2,0.9-0.6,1.2c-0.4,0.3-1,0.5-1.8,0.5
		c-0.8,0-1.4-0.2-1.8-0.5c-0.4-0.3-0.6-0.7-0.6-1.2c0-0.1,0-0.3,0-0.4c0-0.1,0-0.1,0.1-0.2h1.4c0,0.1,0,0.1-0.1,0.2
		c0,0.1,0,0.2,0,0.2c0,0.1,0,0.2,0,0.3c0,0.4,0.1,0.7,0.3,0.9C32.1,3.5,32.4,3.6,32.6,3.6 M33.3,5.4V5.2h4.2v0.2l-1.3,0.3v8.8
		l1.3,0.3v0.2h-4.2v-0.2l1.2-0.3V7.4l-3.8,5.8v1.3l1.2,0.3v0.2h-4.2v-0.2l1.3-0.3V5.7l-1.3-0.3V5.2h4.2v0.2l-1.2,0.3v6.8l3.8-5.8v-1
		L33.3,5.4z"/>
	<polygon class="st0" points="41.4,5.7 41.4,5.2 38.4,5.2 38.4,5.4 39.7,5.7 39.7,14.6 38.4,14.9 38.4,15.1 42.6,15.1 42.6,14.9 
		41.4,14.6 	"/>
	<polygon class="st0" points="46.8,14.6 43.3,8.7 43.1,8.3 42.1,10 42.4,10.3 45,14.6 43.8,14.9 43.8,15.1 48.1,15.1 48.1,14.9 	"/>
	<path class="st0" d="M53.6,9.8c-1.2,0-2.2,0.3-2.8,0.8C50.3,11.2,50,12,50,12.9c0,0.6,0.2,1.2,0.5,1.5c0.3,0.4,0.7,0.5,1,0.5
		c0.3,0,0.6-0.1,0.9-0.3c0.3-0.2,0.5-0.4,0.7-0.7c0.2-0.3,0.4-0.6,0.6-1V9.8z M52,5.2c-0.4,0-0.8,0.1-1.1,0.4
		c-0.3,0.3-0.4,0.7-0.4,1.2c0,0.1,0,0.2,0,0.3c0,0.1,0,0.2,0,0.2c0,0.1,0,0.1,0.1,0.2L48.9,8c0,0-0.1-0.1-0.1-0.2c0-0.1,0-0.2,0-0.2
		c0-0.1,0-0.2,0-0.3c0-0.3,0.1-0.6,0.2-0.9c0.1-0.3,0.4-0.5,0.6-0.8c0.3-0.2,0.6-0.4,1-0.5C51,4.9,51.5,4.8,52,4.8
		c1,0,1.8,0.3,2.4,0.9c0.6,0.6,0.9,1.4,0.9,2.3v6.5l1.3,0.3v0.2h-3v-1.3c-0.2,0.3-0.4,0.6-0.6,0.8c-0.2,0.2-0.5,0.4-0.8,0.5
		c-0.3,0.2-0.7,0.3-1.1,0.3c-1,0-1.8-0.2-2.3-0.7c-0.5-0.5-0.8-1.1-0.8-2c0-0.4,0.1-0.8,0.3-1.2c0.2-0.4,0.6-0.8,1-1.1
		c0.5-0.3,1-0.6,1.7-0.8c0.7-0.2,1.5-0.3,2.5-0.3V8.1c0-1.1-0.2-1.8-0.5-2.3C52.8,5.4,52.4,5.2,52,5.2"/>
	<path class="st1" d="M35.9,23.6h0.6c0.9,0,1.6-0.3,2.1-0.8c0.5-0.6,0.7-1.5,0.7-2.7c0-1.3-0.3-2.2-0.7-2.7
		c-0.5-0.6-1.2-0.8-2.1-0.8h-0.6V23.6z M35.9,23.9v3.9l1,0.3v0.2h-3.6v-0.2l1-0.3V16.5l-1-0.3v-0.2h3.1c0.7,0,1.4,0.1,1.9,0.3
		c0.6,0.2,1,0.5,1.4,0.8c0.4,0.3,0.7,0.8,0.9,1.2c0.2,0.5,0.3,1,0.3,1.6c0,0.6-0.1,1.1-0.3,1.6c-0.2,0.5-0.5,0.9-0.9,1.2
		c-0.4,0.3-0.9,0.6-1.4,0.8c-0.6,0.2-1.2,0.3-1.9,0.3H35.9z"/>
	<path class="st1" d="M44.8,16.2c-0.5,0-1,0.3-1.5,0.8c-0.4,0.5-0.8,1.2-1.1,2.2H42c0-0.2,0-0.4,0-0.5c0-0.2,0-0.3,0-0.5
		c0-0.2,0-0.4,0-0.6c0-0.2,0-0.3,0-0.5c0-0.2,0-0.3,0-0.5c0-0.2,0-0.3,0-0.5h0.3c0.2,0,0.3,0.2,0.5,0.3c0.2,0.2,0.3,0.3,0.4,0.5
		c0.1-0.2,0.3-0.3,0.5-0.4c0.2-0.1,0.4-0.2,0.6-0.3c0.2-0.1,0.5-0.1,0.8-0.1c0.5,0,1,0.1,1.5,0.4c0.5,0.3,0.9,0.7,1.3,1.2
		c0.4,0.5,0.7,1.2,0.9,2c0.2,0.8,0.4,1.7,0.4,2.8c0,1.1-0.1,2-0.4,2.8c-0.2,0.8-0.6,1.5-1,2c-0.4,0.5-0.9,0.9-1.4,1.2
		c-0.5,0.3-1,0.4-1.6,0.4c-0.4,0-0.8-0.1-1.2-0.3c-0.4-0.2-0.7-0.4-1-0.7c-0.3-0.3-0.5-0.7-0.7-1.1c-0.2-0.4-0.3-0.9-0.3-1.4h0.3
		c0,0.4,0.2,0.9,0.3,1.2c0.2,0.4,0.4,0.7,0.6,1c0.3,0.3,0.5,0.5,0.9,0.7c0.3,0.2,0.6,0.3,1,0.3c0.4,0,0.7-0.1,1.1-0.3
		c0.3-0.2,0.6-0.5,0.9-1c0.3-0.5,0.5-1.1,0.6-1.8c0.2-0.8,0.2-1.7,0.2-2.9h-1.9l-0.8,1.6h-0.2v-3.5h0.2l0.8,1.6h1.9
		c0-1.1-0.1-2-0.3-2.8c-0.2-0.7-0.3-1.3-0.6-1.7c-0.2-0.4-0.5-0.7-0.8-0.9S45.2,16.2,44.8,16.2"/>
	<path class="st1" d="M55.2,28h-4.4c0.3-0.3,0.5-0.8,0.7-1.5c0.2-0.5,0.3-1.3,0.5-2.2c0.1-0.9,0.2-2.1,0.2-3.5v-4.4h3V28z M58,30
		c0-0.2,0-0.4,0-0.5c0-0.2,0-0.4,0-0.6c0-0.2,0-0.3,0-0.5c0-0.2,0-0.3,0.1-0.5h-1.4V16.5l1-0.3v-0.2h-7.1v0.2l1.1,0.3v4.2
		c0,1.4-0.1,2.6-0.2,3.5c-0.2,0.9-0.3,1.6-0.5,2.2c-0.2,0.6-0.5,1.1-0.7,1.5h-1.2c0,0.1,0,0.3,0,0.5c0,0.1,0,0.3,0,0.5
		c0,0.2,0,0.4,0,0.6c0,0.2,0,0.4,0,0.5c0,0.2,0,0.4,0,0.5c0,0.2,0,0.4,0,0.5h0.2c0.4-0.3,0.7-0.7,0.9-1.2c0.2-0.5,0.3-1,0.3-1.5h6.2
		c0,0.6,0.1,1.1,0.3,1.5c0.2,0.5,0.5,0.8,0.9,1.2H58c0-0.2,0-0.3-0.1-0.5C58,30.3,58,30.2,58,30"/>
	<path class="st2" d="M46.9,5c-0.1,0-0.2-0.1-0.4-0.1c-0.1,0-0.3,0-0.5,0c-0.5,0-0.9,0.2-1.2,0.5c-0.3,0.3-0.6,0.6-0.8,1
		c-0.3,0.4-1,2-1,2s0.7-0.8,0.9-1c0.2-0.2,0.4-0.5,0.7-0.7c0.3-0.2,0.6-0.3,1-0.3c0.1,0,0.3,0,0.4,0.1c0.1,0,0.2,0.1,0.3,0.1
		c0.1,0.1,0.2,0.1,0.3,0.2l0.6-1.6C47.2,5,47,5,46.9,5"/>
</g>
</svg>
